:FULLY-SPECIFIED
:FORCE-ALL-JOINTS-BE-3DOF
:DEGREES
2548
root 4.05349 13.7339 -23.8981 -66.1858 87.3848 -68.6492
lfemur -38.0471 11.7631 -11.9423
ltibia 90 0 0
lfoot -27.6436 25.8668 -0.017734
ltoes -39.1078 0 0
rfemur -56.977 -24.5165 9.65635
rtibia 63.3376 0 0
rfoot 1.38872 7.56603 0.162356
rtoes 8.15737 0 0
lowerback 16.7295 -0.405859 -3.42149
upperback -1.07416 -0.858374 3.10661
thorax -10.5184 -0.0902027 5.57749
lowerneck 5.14052 -14.599 -15.1379
upperneck 0.0948705 -20.4352 14.8294
head 2.2949 -10.364 6.17042
lclavicle -2.77598e-14 1.59445e-14 -2.40452e-31
lhumerus -53.0371 -45.3119 115.065
lradius 107.444 0 0
lwrist 81.7366 0 0
lhand 8.9548 40.1729 -0.0148641
lfingers 7.12502 0 0
lthumb 34.1334 66.9175 -0.0170041
rclavicle -2.77598e-14 1.59445e-14 -2.40452e-31
rhumerus 8.6471 -14.3968 -60.7252
rradius 76.0911 0 0
rwrist 27.6858 0 0
rhand -38.3093 -48.6537 0.0998389
rfingers 7.12502 0 0
rthumb -11.3366 -78.2952 0.094709
2549
root 4.01128 13.7477 -24.0363 -57.8068 87.187 -60.3135
lfemur -38.0937 11.7511 -12.0001
ltibia 89.9816 0 0
lfoot -27.6341 25.9091 -0.019596
ltoes -39.0837 0 0
rfemur -57.0017 -24.4447 9.73186
rtibia 63.5091 0 0
rfoot 1.33576 7.40037 0.180822
rtoes 8.15834 0 0
lowerback 16.7452 -0.394829 -3.42554
upperback -1.06872 -0.845698 3.09959
thorax -10.5234 -0.0842383 5.56879
lowerneck 5.1411 -14.5988 -15.1373
upperneck 0.0872358 -20.436 14.8585
head 2.29599 -10.3648 6.17904
lclavicle -2.76877e-14 1.6044e-14 -2.57764e-31
lhumerus -52.8834 -45.4405 115.054
lradius 107.372 0 0
lwrist 81.6672 0 0
lhand 8.91868 40.1937 -0.0165547
lfingers 7.12502 0 0
lthumb 34.099 66.945 -0.0189339
rclavicle -2.76877e-14 1.6044e-14 -2.57764e-31
rhumerus 8.86943 -14.0799 -60.6342
rradius 76.16 0 0
rwrist 27.5412 0 0
rhand -38.2122 -48.5753 0.111073
rfingers 7.12502 0 0
rthumb -11.2429 -78.2183 0.105366
2550
root 3.96908 13.7614 -24.1744 -51.6738 86.9795 -54.2158
lfemur -38.1314 11.7497 -12.0491
ltibia 89.9628 0 0
lfoot -27.6312 25.9424 -0.0209861
ltoes -39.0626 0 0
rfemur -57.0215 -24.3898 9.79651
rtibia 63.6575 0 0
rfoot 1.28738 7.26065 0.196342
rtoes 8.15997 0 0
lowerback 16.7581 -0.385602 -3.43131
upperback -1.06459 -0.835591 3.09382
thorax -10.5278 -0.0793283 5.56315
lowerneck 5.14127 -14.5989 -15.1373
upperneck 0.0822906 -20.437 14.8824
head 2.29741 -10.3656 6.18602
lclavicle -2.76078e-14 1.60984e-14 -2.65498e-31
lhumerus -52.754 -45.5466 115.045
lradius 107.312 0 0
lwrist 81.6102 0 0
lhand 8.88826 40.2132 -0.0179733
lfingers 7.12502 0 0
lthumb 34.07 66.9702 -0.0205551
rclavicle -2.76078e-14 1.60984e-14 -2.65498e-31
rhumerus 9.05755 -13.8119 -60.5602
rradius 76.2236 0 0
rwrist 27.4278 0 0
rhand -38.1301 -48.5089 0.120561
rfingers 7.12502 0 0
rthumb -11.1636 -78.1531 0.114367
2551
root 3.92687 13.7752 -24.3126 -47.07 86.7776 -49.641
lfemur -38.1615 11.7589 -12.0914
ltibia 89.9427 0 0
lfoot -27.635 25.968 -0.0219508
ltoes -39.0435 0 0
rfemur -57.037 -24.3496 9.85297
rtibia 63.7888 0 0
rfoot 1.24156 7.14119 0.209593
rtoes 8.16233 0 0
lowerback 16.7689 -0.377805 -3.43909
upperback -1.06158 -0.827653 3.08908
thorax -10.5318 -0.0752757 5.56037
lowerneck 5.14103 -14.5992 -15.1376
upperneck 0.0798599 -20.4384 14.902
head 2.29923 -10.3665 6.19165
lclavicle -2.75166e-14 1.61093e-14 -2.63931e-31
lhumerus -52.6436 -45.6346 115.038
lradius 107.261 0 0
lwrist 81.5634 0 0
lhand 8.8623 40.2322 -0.0191806
lfingers 7.12502 0 0
lthumb 34.0453 66.9939 -0.0219382
rclavicle -2.75166e-14 1.61093e-14 -2.63931e-31
rhumerus 9.21915 -13.5817 -60.5008
rradius 76.2844 0 0
rwrist 27.3412 0 0
rhand -38.0597 -48.4519 0.128735
rfingers 7.12502 0 0
rthumb -11.0956 -78.0971 0.122121
